<svg width="334" height="26" viewBox="0 0 334 26" fill="none" xmlns="http://www.w3.org/2000/svg">
<path fill-rule="evenodd" clip-rule="evenodd" d="M14.4006 14.5071V10.1378C14.4006 9.85407 14.171 9.62412 13.8877 9.62412H12.6984V5.50597C12.6984 2.47008 10.2318 0 7.20015 0C4.16852 0 1.70192 2.47008 1.70192 5.50597V9.59601H2.72775V5.50597C2.72775 3.03652 4.73417 1.02727 7.20015 1.02727C9.66614 1.02727 11.6726 3.0362 11.6726 5.50597V9.62412H0.512603C0.229314 9.62412 0 9.85407 0 10.1378V18.5931C0 19.5969 0.811803 20.4099 1.80987 20.4099H8.11179C8.37137 23.183 10.7069 25.361 13.5429 25.361C16.3659 25.361 18.7008 23.2417 18.9741 20.4317C18.9913 20.2549 19 20.0746 19 19.8959C19.0003 18.5568 18.5114 17.2681 17.6235 16.2673C16.7805 15.3176 15.6367 14.7049 14.4006 14.5071ZM1.02583 18.5975V15.3738C1.02583 15.3735 1.02583 15.3735 1.02583 15.3732V10.6514H13.3751V14.4399C10.6158 14.5246 8.36638 16.6651 8.1121 19.3826H1.80987C1.37744 19.3829 1.02583 19.0305 1.02583 18.5975ZM17.9536 20.3324C17.7318 22.6138 15.8358 24.334 13.5433 24.334C11.0997 24.334 9.11173 22.3432 9.11173 19.8962C9.11173 17.4493 11.0997 15.4585 13.5433 15.4585C14.8081 15.4585 16.0158 16.0021 16.8569 16.9497C17.5776 17.762 17.9748 18.8083 17.9748 19.8962C17.9745 20.0418 17.9676 20.1887 17.9536 20.3324Z" fill="#6B6B6B"/>
<path d="M22.94 7.29V8.16H26.66V18H27.68V8.16H31.415V7.29H22.94ZM32.22 7.29V18H33.165V13.485C33.175 13.105 33.235 12.755 33.345 12.435C33.465 12.105 33.625 11.825 33.825 11.595C34.035 11.355 34.285 11.17 34.575 11.04C34.875 10.9 35.215 10.83 35.595 10.83C35.975 10.83 36.29 10.89 36.54 11.01C36.8 11.13 37.005 11.295 37.155 11.505C37.305 11.715 37.41 11.965 37.47 12.255C37.53 12.535 37.56 12.84 37.56 13.17V18H38.505V13.02C38.505 12.56 38.46 12.145 38.37 11.775C38.28 11.405 38.125 11.095 37.905 10.845C37.685 10.585 37.39 10.385 37.02 10.245C36.66 10.105 36.21 10.035 35.67 10.035C35.12 10.035 34.615 10.18 34.155 10.47C33.695 10.75 33.375 11.125 33.195 11.595H33.165V7.29H32.22ZM40.3066 7.29V8.805H41.2516V7.29H40.3066ZM40.3066 10.26V18H41.2516V10.26H40.3066ZM47.6952 12.525H48.6402C48.6202 12.105 48.5352 11.74 48.3852 11.43C48.2352 11.12 48.0302 10.86 47.7702 10.65C47.5202 10.44 47.2252 10.285 46.8852 10.185C46.5552 10.085 46.1952 10.035 45.8052 10.035C45.4652 10.035 45.1202 10.075 44.7702 10.155C44.4302 10.235 44.1202 10.36 43.8402 10.53C43.5602 10.7 43.3302 10.925 43.1502 11.205C42.9802 11.485 42.8952 11.82 42.8952 12.21C42.8952 12.54 42.9502 12.82 43.0602 13.05C43.1702 13.27 43.3202 13.46 43.5102 13.62C43.7102 13.77 43.9402 13.9 44.2002 14.01C44.4602 14.11 44.7452 14.2 45.0552 14.28L46.2702 14.55C46.4802 14.6 46.6852 14.66 46.8852 14.73C47.0952 14.8 47.2802 14.89 47.4402 15C47.6002 15.1 47.7252 15.23 47.8152 15.39C47.9152 15.54 47.9652 15.73 47.9652 15.96C47.9652 16.23 47.8952 16.46 47.7552 16.65C47.6252 16.83 47.4552 16.98 47.2452 17.1C47.0352 17.22 46.8052 17.305 46.5552 17.355C46.3152 17.405 46.0802 17.43 45.8502 17.43C45.2202 17.43 44.6902 17.27 44.2602 16.95C43.8402 16.62 43.6102 16.135 43.5702 15.495H42.6252C42.7052 16.445 43.0252 17.135 43.5852 17.565C44.1552 17.995 44.8952 18.21 45.8052 18.21C46.1652 18.21 46.5302 18.17 46.9002 18.09C47.2702 18.01 47.6002 17.88 47.8902 17.7C48.1902 17.51 48.4352 17.27 48.6252 16.98C48.8152 16.68 48.9102 16.32 48.9102 15.9C48.9102 15.56 48.8452 15.265 48.7152 15.015C48.5852 14.765 48.4152 14.555 48.2052 14.385C48.0052 14.215 47.7702 14.08 47.5002 13.98C47.2402 13.87 46.9752 13.795 46.7052 13.755L45.4452 13.47C45.2852 13.43 45.1102 13.38 44.9202 13.32C44.7302 13.25 44.5552 13.165 44.3952 13.065C44.2352 12.965 44.1002 12.845 43.9902 12.705C43.8902 12.555 43.8402 12.375 43.8402 12.165C43.8402 11.915 43.8952 11.705 44.0052 11.535C44.1152 11.365 44.2602 11.23 44.4402 11.13C44.6202 11.02 44.8152 10.945 45.0252 10.905C45.2452 10.855 45.4602 10.83 45.6702 10.83C45.9402 10.83 46.1952 10.865 46.4352 10.935C46.6752 10.995 46.8852 11.095 47.0652 11.235C47.2552 11.375 47.4052 11.555 47.5152 11.775C47.6252 11.985 47.6852 12.235 47.6952 12.525ZM54.4716 7.29V8.805H55.4166V7.29H54.4716ZM54.4716 10.26V18H55.4166V10.26H54.4716ZM61.8602 12.525H62.8052C62.7852 12.105 62.7002 11.74 62.5502 11.43C62.4002 11.12 62.1952 10.86 61.9352 10.65C61.6852 10.44 61.3902 10.285 61.0502 10.185C60.7202 10.085 60.3602 10.035 59.9702 10.035C59.6302 10.035 59.2852 10.075 58.9352 10.155C58.5952 10.235 58.2852 10.36 58.0052 10.53C57.7252 10.7 57.4952 10.925 57.3152 11.205C57.1452 11.485 57.0602 11.82 57.0602 12.21C57.0602 12.54 57.1152 12.82 57.2252 13.05C57.3352 13.27 57.4852 13.46 57.6752 13.62C57.8752 13.77 58.1052 13.9 58.3652 14.01C58.6252 14.11 58.9102 14.2 59.2202 14.28L60.4352 14.55C60.6452 14.6 60.8502 14.66 61.0502 14.73C61.2602 14.8 61.4452 14.89 61.6052 15C61.7652 15.1 61.8902 15.23 61.9802 15.39C62.0802 15.54 62.1302 15.73 62.1302 15.96C62.1302 16.23 62.0602 16.46 61.9202 16.65C61.7902 16.83 61.6202 16.98 61.4102 17.1C61.2002 17.22 60.9702 17.305 60.7202 17.355C60.4802 17.405 60.2452 17.43 60.0152 17.43C59.3852 17.43 58.8552 17.27 58.4252 16.95C58.0052 16.62 57.7752 16.135 57.7352 15.495H56.7902C56.8702 16.445 57.1902 17.135 57.7502 17.565C58.3202 17.995 59.0602 18.21 59.9702 18.21C60.3302 18.21 60.6952 18.17 61.0652 18.09C61.4352 18.01 61.7652 17.88 62.0552 17.7C62.3552 17.51 62.6002 17.27 62.7902 16.98C62.9802 16.68 63.0752 16.32 63.0752 15.9C63.0752 15.56 63.0102 15.265 62.8802 15.015C62.7502 14.765 62.5802 14.555 62.3702 14.385C62.1702 14.215 61.9352 14.08 61.6652 13.98C61.4052 13.87 61.1402 13.795 60.8702 13.755L59.6102 13.47C59.4502 13.43 59.2752 13.38 59.0852 13.32C58.8952 13.25 58.7202 13.165 58.5602 13.065C58.4002 12.965 58.2652 12.845 58.1552 12.705C58.0552 12.555 58.0052 12.375 58.0052 12.165C58.0052 11.915 58.0602 11.705 58.1702 11.535C58.2802 11.365 58.4252 11.23 58.6052 11.13C58.7852 11.02 58.9802 10.945 59.1902 10.905C59.4102 10.855 59.6252 10.83 59.8352 10.83C60.1052 10.83 60.3602 10.865 60.6002 10.935C60.8402 10.995 61.0502 11.095 61.2302 11.235C61.4202 11.375 61.5702 11.555 61.6802 11.775C61.7902 11.985 61.8502 12.235 61.8602 12.525ZM68.5317 12.63H69.4767C69.4967 12 69.6967 11.545 70.0767 11.265C70.4567 10.975 70.9467 10.83 71.5467 10.83C71.8267 10.83 72.0867 10.855 72.3267 10.905C72.5767 10.945 72.7917 11.025 72.9717 11.145C73.1617 11.265 73.3067 11.43 73.4067 11.64C73.5167 11.84 73.5717 12.1 73.5717 12.42C73.5717 12.63 73.5417 12.8 73.4817 12.93C73.4317 13.06 73.3567 13.165 73.2567 13.245C73.1567 13.315 73.0317 13.365 72.8817 13.395C72.7317 13.425 72.5567 13.45 72.3567 13.47C71.8467 13.53 71.3417 13.595 70.8417 13.665C70.3517 13.725 69.9067 13.835 69.5067 13.995C69.1167 14.155 68.8017 14.39 68.5617 14.7C68.3217 15 68.2017 15.42 68.2017 15.96C68.2017 16.35 68.2667 16.69 68.3967 16.98C68.5367 17.26 68.7217 17.495 68.9517 17.685C69.1917 17.865 69.4667 17.995 69.7767 18.075C70.0967 18.165 70.4367 18.21 70.7967 18.21C71.1767 18.21 71.5017 18.175 71.7717 18.105C72.0517 18.035 72.2967 17.935 72.5067 17.805C72.7267 17.675 72.9217 17.515 73.0917 17.325C73.2717 17.125 73.4467 16.9 73.6167 16.65H73.6467C73.6467 16.85 73.6567 17.035 73.6767 17.205C73.7067 17.365 73.7617 17.505 73.8417 17.625C73.9217 17.745 74.0317 17.84 74.1717 17.91C74.3217 17.97 74.5167 18 74.7567 18C74.8867 18 74.9917 17.995 75.0717 17.985C75.1617 17.975 75.2617 17.96 75.3717 17.94V17.145C75.2817 17.185 75.1817 17.205 75.0717 17.205C74.7017 17.205 74.5167 17.015 74.5167 16.635V12.525C74.5167 12.005 74.4317 11.585 74.2617 11.265C74.0917 10.935 73.8717 10.68 73.6017 10.5C73.3317 10.32 73.0267 10.2 72.6867 10.14C72.3467 10.07 72.0067 10.035 71.6667 10.035C71.2167 10.035 70.8067 10.085 70.4367 10.185C70.0667 10.285 69.7417 10.44 69.4617 10.65C69.1917 10.86 68.9767 11.13 68.8167 11.46C68.6567 11.79 68.5617 12.18 68.5317 12.63ZM73.5717 13.77V15C73.5717 15.38 73.4967 15.72 73.3467 16.02C73.2067 16.32 73.0117 16.575 72.7617 16.785C72.5217 16.995 72.2367 17.155 71.9067 17.265C71.5767 17.375 71.2317 17.43 70.8717 17.43C70.6517 17.43 70.4367 17.395 70.2267 17.325C70.0167 17.255 69.8317 17.155 69.6717 17.025C69.5117 16.885 69.3817 16.725 69.2817 16.545C69.1917 16.355 69.1467 16.14 69.1467 15.9C69.1467 15.52 69.2567 15.23 69.4767 15.03C69.7067 14.82 69.9967 14.66 70.3467 14.55C70.6967 14.44 71.0817 14.36 71.5017 14.31C71.9317 14.25 72.3467 14.185 72.7467 14.115C72.8767 14.095 73.0267 14.06 73.1967 14.01C73.3667 13.96 73.4817 13.88 73.5417 13.77H73.5717ZM85.2098 12.525H86.1548C86.1348 12.105 86.0498 11.74 85.8998 11.43C85.7498 11.12 85.5448 10.86 85.2848 10.65C85.0348 10.44 84.7398 10.285 84.3998 10.185C84.0698 10.085 83.7098 10.035 83.3198 10.035C82.9798 10.035 82.6348 10.075 82.2848 10.155C81.9448 10.235 81.6348 10.36 81.3548 10.53C81.0748 10.7 80.8448 10.925 80.6648 11.205C80.4948 11.485 80.4098 11.82 80.4098 12.21C80.4098 12.54 80.4648 12.82 80.5748 13.05C80.6848 13.27 80.8348 13.46 81.0248 13.62C81.2248 13.77 81.4548 13.9 81.7148 14.01C81.9748 14.11 82.2598 14.2 82.5698 14.28L83.7848 14.55C83.9948 14.6 84.1998 14.66 84.3998 14.73C84.6098 14.8 84.7948 14.89 84.9548 15C85.1148 15.1 85.2398 15.23 85.3298 15.39C85.4298 15.54 85.4798 15.73 85.4798 15.96C85.4798 16.23 85.4098 16.46 85.2698 16.65C85.1398 16.83 84.9698 16.98 84.7598 17.1C84.5498 17.22 84.3198 17.305 84.0698 17.355C83.8298 17.405 83.5948 17.43 83.3648 17.43C82.7348 17.43 82.2048 17.27 81.7748 16.95C81.3548 16.62 81.1248 16.135 81.0848 15.495H80.1398C80.2198 16.445 80.5398 17.135 81.0998 17.565C81.6698 17.995 82.4098 18.21 83.3198 18.21C83.6798 18.21 84.0448 18.17 84.4148 18.09C84.7848 18.01 85.1148 17.88 85.4048 17.7C85.7048 17.51 85.9498 17.27 86.1398 16.98C86.3298 16.68 86.4248 16.32 86.4248 15.9C86.4248 15.56 86.3598 15.265 86.2298 15.015C86.0998 14.765 85.9298 14.555 85.7198 14.385C85.5198 14.215 85.2848 14.08 85.0148 13.98C84.7548 13.87 84.4898 13.795 84.2198 13.755L82.9598 13.47C82.7998 13.43 82.6248 13.38 82.4348 13.32C82.2448 13.25 82.0698 13.165 81.9098 13.065C81.7498 12.965 81.6148 12.845 81.5048 12.705C81.4048 12.555 81.3548 12.375 81.3548 12.165C81.3548 11.915 81.4098 11.705 81.5198 11.535C81.6298 11.365 81.7748 11.23 81.9548 11.13C82.1348 11.02 82.3298 10.945 82.5398 10.905C82.7598 10.855 82.9748 10.83 83.1848 10.83C83.4548 10.83 83.7098 10.865 83.9498 10.935C84.1898 10.995 84.3998 11.095 84.5798 11.235C84.7698 11.375 84.9198 11.555 85.0298 11.775C85.1398 11.985 85.1998 12.235 85.2098 12.525ZM93.3615 13.59H88.3515C88.3915 13.24 88.4715 12.9 88.5915 12.57C88.7215 12.23 88.8915 11.935 89.1015 11.685C89.3115 11.425 89.5665 11.22 89.8665 11.07C90.1665 10.91 90.5115 10.83 90.9015 10.83C91.2815 10.83 91.6215 10.91 91.9215 11.07C92.2215 11.22 92.4765 11.425 92.6865 11.685C92.8965 11.935 93.0565 12.225 93.1665 12.555C93.2865 12.885 93.3515 13.23 93.3615 13.59ZM88.3515 14.385H94.3065C94.3265 13.845 94.2765 13.315 94.1565 12.795C94.0365 12.265 93.8365 11.8 93.5565 11.4C93.2865 10.99 92.9315 10.66 92.4915 10.41C92.0515 10.16 91.5215 10.035 90.9015 10.035C90.2915 10.035 89.7615 10.155 89.3115 10.395C88.8715 10.625 88.5115 10.935 88.2315 11.325C87.9515 11.705 87.7415 12.14 87.6015 12.63C87.4715 13.12 87.4065 13.62 87.4065 14.13C87.4065 14.68 87.4715 15.205 87.6015 15.705C87.7415 16.195 87.9515 16.63 88.2315 17.01C88.5115 17.38 88.8715 17.675 89.3115 17.895C89.7615 18.105 90.2915 18.21 90.9015 18.21C91.8815 18.21 92.6365 17.97 93.1665 17.49C93.7065 17.01 94.0765 16.33 94.2765 15.45H93.3315C93.1815 16.05 92.9115 16.53 92.5215 16.89C92.1315 17.25 91.5915 17.43 90.9015 17.43C90.4515 17.43 90.0665 17.335 89.7465 17.145C89.4265 16.955 89.1615 16.715 88.9515 16.425C88.7415 16.135 88.5865 15.81 88.4865 15.45C88.3965 15.08 88.3515 14.725 88.3515 14.385ZM101.035 12.69H101.98C101.87 11.8 101.525 11.135 100.945 10.695C100.375 10.255 99.6748 10.035 98.8448 10.035C98.2548 10.035 97.7298 10.145 97.2698 10.365C96.8198 10.585 96.4398 10.88 96.1298 11.25C95.8198 11.62 95.5848 12.055 95.4248 12.555C95.2648 13.045 95.1848 13.57 95.1848 14.13C95.1848 14.69 95.2648 15.22 95.4248 15.72C95.5848 16.21 95.8198 16.64 96.1298 17.01C96.4398 17.38 96.8198 17.675 97.2698 17.895C97.7298 18.105 98.2548 18.21 98.8448 18.21C99.7248 18.21 100.445 17.95 101.005 17.43C101.565 16.9 101.91 16.165 102.04 15.225H101.095C101.065 15.545 100.985 15.84 100.855 16.11C100.725 16.38 100.56 16.615 100.36 16.815C100.16 17.005 99.9298 17.155 99.6698 17.265C99.4098 17.375 99.1348 17.43 98.8448 17.43C98.3948 17.43 97.9998 17.335 97.6598 17.145C97.3198 16.955 97.0348 16.705 96.8048 16.395C96.5848 16.085 96.4148 15.735 96.2948 15.345C96.1848 14.945 96.1298 14.54 96.1298 14.13C96.1298 13.72 96.1848 13.32 96.2948 12.93C96.4148 12.53 96.5848 12.175 96.8048 11.865C97.0348 11.555 97.3198 11.305 97.6598 11.115C97.9998 10.925 98.3948 10.83 98.8448 10.83C99.4748 10.83 99.9648 10.995 100.315 11.325C100.665 11.655 100.905 12.11 101.035 12.69ZM109.623 18V10.26H108.678V14.325C108.678 14.715 108.633 15.1 108.543 15.48C108.453 15.85 108.313 16.18 108.123 16.47C107.933 16.76 107.693 16.995 107.403 17.175C107.113 17.345 106.763 17.43 106.353 17.43C105.603 17.43 105.073 17.25 104.763 16.89C104.463 16.53 104.303 16 104.283 15.3V10.26H103.338V15.285C103.338 15.745 103.388 16.155 103.488 16.515C103.588 16.875 103.743 17.18 103.953 17.43C104.173 17.68 104.453 17.87 104.793 18C105.143 18.14 105.563 18.21 106.053 18.21C106.633 18.21 107.158 18.075 107.628 17.805C108.108 17.525 108.473 17.125 108.723 16.605H108.753V18H109.623ZM111.41 10.26V18H112.355V13.875C112.355 13.465 112.425 13.09 112.565 12.75C112.705 12.4 112.9 12.1 113.15 11.85C113.41 11.6 113.715 11.41 114.065 11.28C114.415 11.14 114.805 11.08 115.235 11.1V10.155C114.535 10.125 113.93 10.28 113.42 10.62C112.92 10.96 112.55 11.445 112.31 12.075H112.28V10.26H111.41ZM121.443 13.59H116.433C116.473 13.24 116.553 12.9 116.673 12.57C116.803 12.23 116.973 11.935 117.183 11.685C117.393 11.425 117.648 11.22 117.948 11.07C118.248 10.91 118.593 10.83 118.983 10.83C119.363 10.83 119.703 10.91 120.003 11.07C120.303 11.22 120.558 11.425 120.768 11.685C120.978 11.935 121.138 12.225 121.248 12.555C121.368 12.885 121.433 13.23 121.443 13.59ZM116.433 14.385H122.388C122.408 13.845 122.358 13.315 122.238 12.795C122.118 12.265 121.918 11.8 121.638 11.4C121.368 10.99 121.013 10.66 120.573 10.41C120.133 10.16 119.603 10.035 118.983 10.035C118.373 10.035 117.843 10.155 117.393 10.395C116.953 10.625 116.593 10.935 116.313 11.325C116.033 11.705 115.823 12.14 115.683 12.63C115.553 13.12 115.488 13.62 115.488 14.13C115.488 14.68 115.553 15.205 115.683 15.705C115.823 16.195 116.033 16.63 116.313 17.01C116.593 17.38 116.953 17.675 117.393 17.895C117.843 18.105 118.373 18.21 118.983 18.21C119.963 18.21 120.718 17.97 121.248 17.49C121.788 17.01 122.158 16.33 122.358 15.45H121.413C121.263 16.05 120.993 16.53 120.603 16.89C120.213 17.25 119.673 17.43 118.983 17.43C118.533 17.43 118.148 17.335 117.828 17.145C117.508 16.955 117.243 16.715 117.033 16.425C116.823 16.135 116.668 15.81 116.568 15.45C116.478 15.08 116.433 14.725 116.433 14.385ZM128.386 9.525V10.2H131.161V18H132.106V7.5H131.341C131.271 7.98 131.151 8.355 130.981 8.625C130.821 8.885 130.616 9.08 130.366 9.21C130.126 9.34 129.836 9.425 129.496 9.465C129.166 9.495 128.796 9.515 128.386 9.525ZM142.721 18V17.13H136.886C136.946 16.78 137.096 16.46 137.336 16.17C137.576 15.87 137.851 15.595 138.161 15.345C138.481 15.095 138.811 14.87 139.151 14.67C139.491 14.46 139.786 14.27 140.036 14.1C140.386 13.88 140.716 13.645 141.026 13.395C141.346 13.135 141.626 12.855 141.866 12.555C142.116 12.255 142.311 11.925 142.451 11.565C142.601 11.205 142.676 10.805 142.676 10.365C142.676 9.875 142.591 9.445 142.421 9.075C142.261 8.705 142.031 8.4 141.731 8.16C141.441 7.91 141.096 7.725 140.696 7.605C140.306 7.475 139.881 7.41 139.421 7.41C138.851 7.41 138.351 7.505 137.921 7.695C137.501 7.875 137.151 8.13 136.871 8.46C136.591 8.79 136.381 9.185 136.241 9.645C136.111 10.095 136.051 10.59 136.061 11.13H137.006C136.996 10.74 137.031 10.37 137.111 10.02C137.201 9.67 137.341 9.36 137.531 9.09C137.721 8.82 137.966 8.605 138.266 8.445C138.576 8.285 138.946 8.205 139.376 8.205C139.696 8.205 139.996 8.255 140.276 8.355C140.566 8.445 140.816 8.585 141.026 8.775C141.246 8.955 141.416 9.18 141.536 9.45C141.666 9.71 141.731 10.01 141.731 10.35C141.731 10.77 141.656 11.135 141.506 11.445C141.366 11.745 141.151 12.04 140.861 12.33C140.571 12.62 140.241 12.895 139.871 13.155C139.511 13.405 139.146 13.655 138.776 13.905C138.406 14.145 138.046 14.4 137.696 14.67C137.346 14.93 137.031 15.22 136.751 15.54C136.471 15.86 136.246 16.22 136.076 16.62C135.906 17.02 135.816 17.48 135.806 18H142.721ZM147.771 11.985C147.491 11.995 147.216 11.965 146.946 11.895C146.676 11.825 146.436 11.71 146.226 11.55C146.016 11.39 145.846 11.185 145.716 10.935C145.586 10.685 145.521 10.385 145.521 10.035C145.521 9.735 145.581 9.47 145.701 9.24C145.831 9.01 146.001 8.82 146.211 8.67C146.421 8.52 146.661 8.405 146.931 8.325C147.201 8.245 147.481 8.205 147.771 8.205C148.091 8.205 148.386 8.245 148.656 8.325C148.926 8.405 149.161 8.52 149.361 8.67C149.561 8.82 149.716 9.01 149.826 9.24C149.946 9.47 150.006 9.735 150.006 10.035C150.006 10.375 149.941 10.67 149.811 10.92C149.691 11.17 149.526 11.375 149.316 11.535C149.116 11.695 148.881 11.815 148.611 11.895C148.341 11.965 148.061 11.995 147.771 11.985ZM150.951 10.035C150.951 9.585 150.856 9.195 150.666 8.865C150.486 8.535 150.241 8.265 149.931 8.055C149.631 7.835 149.291 7.675 148.911 7.575C148.531 7.465 148.146 7.41 147.756 7.41C147.366 7.41 146.981 7.465 146.601 7.575C146.221 7.675 145.881 7.835 145.581 8.055C145.281 8.265 145.036 8.535 144.846 8.865C144.666 9.195 144.576 9.585 144.576 10.035C144.576 10.615 144.721 11.105 145.011 11.505C145.311 11.895 145.736 12.175 146.286 12.345V12.375C145.626 12.495 145.111 12.8 144.741 13.29C144.371 13.78 144.176 14.37 144.156 15.06C144.156 15.59 144.251 16.055 144.441 16.455C144.631 16.845 144.891 17.17 145.221 17.43C145.551 17.69 145.936 17.885 146.376 18.015C146.816 18.145 147.281 18.21 147.771 18.21C148.271 18.21 148.736 18.145 149.166 18.015C149.606 17.885 149.991 17.69 150.321 17.43C150.651 17.17 150.911 16.845 151.101 16.455C151.291 16.055 151.386 15.59 151.386 15.06C151.386 14.34 151.201 13.75 150.831 13.29C150.461 12.82 149.931 12.515 149.241 12.375V12.345C149.781 12.185 150.201 11.905 150.501 11.505C150.801 11.095 150.951 10.605 150.951 10.035ZM147.771 17.43C147.401 17.43 147.051 17.38 146.721 17.28C146.401 17.18 146.121 17.035 145.881 16.845C145.641 16.645 145.451 16.395 145.311 16.095C145.171 15.795 145.101 15.45 145.101 15.06C145.101 14.68 145.171 14.345 145.311 14.055C145.461 13.765 145.656 13.525 145.896 13.335C146.136 13.135 146.416 12.99 146.736 12.9C147.066 12.81 147.411 12.77 147.771 12.78C148.121 12.77 148.456 12.815 148.776 12.915C149.106 13.005 149.391 13.15 149.631 13.35C149.881 13.54 150.076 13.78 150.216 14.07C150.366 14.35 150.441 14.68 150.441 15.06C150.441 15.46 150.371 15.81 150.231 16.11C150.091 16.41 149.901 16.66 149.661 16.86C149.421 17.05 149.136 17.195 148.806 17.295C148.486 17.385 148.141 17.43 147.771 17.43ZM152.836 14.31H156.586V13.44H152.836V14.31ZM158.387 7.29V18H159.257V16.53H159.287C159.507 17.07 159.862 17.485 160.352 17.775C160.852 18.065 161.417 18.21 162.047 18.21C162.637 18.21 163.147 18.105 163.577 17.895C164.017 17.675 164.382 17.38 164.672 17.01C164.962 16.63 165.177 16.195 165.317 15.705C165.457 15.205 165.527 14.68 165.527 14.13C165.527 13.58 165.457 13.06 165.317 12.57C165.177 12.07 164.962 11.635 164.672 11.265C164.382 10.885 164.017 10.585 163.577 10.365C163.147 10.145 162.637 10.035 162.047 10.035C161.767 10.035 161.487 10.07 161.207 10.14C160.927 10.21 160.667 10.32 160.427 10.47C160.187 10.61 159.972 10.785 159.782 10.995C159.602 11.205 159.462 11.45 159.362 11.73H159.332V7.29H158.387ZM164.582 14.13C164.582 14.53 164.532 14.93 164.432 15.33C164.342 15.72 164.192 16.07 163.982 16.38C163.782 16.69 163.522 16.945 163.202 17.145C162.882 17.335 162.497 17.43 162.047 17.43C161.547 17.43 161.122 17.335 160.772 17.145C160.432 16.945 160.152 16.69 159.932 16.38C159.722 16.07 159.567 15.72 159.467 15.33C159.377 14.93 159.332 14.53 159.332 14.13C159.332 13.73 159.377 13.335 159.467 12.945C159.567 12.545 159.722 12.19 159.932 11.88C160.152 11.57 160.432 11.32 160.772 11.13C161.122 10.93 161.547 10.83 162.047 10.83C162.497 10.83 162.882 10.93 163.202 11.13C163.522 11.32 163.782 11.57 163.982 11.88C164.192 12.19 164.342 12.545 164.432 12.945C164.532 13.335 164.582 13.73 164.582 14.13ZM167.016 7.29V8.805H167.961V7.29H167.016ZM167.016 10.26V18H167.961V10.26H167.016ZM171.269 10.26V7.935H170.324V10.26H168.974V11.055H170.324V16.35C170.314 17.01 170.434 17.465 170.684 17.715C170.934 17.955 171.374 18.075 172.004 18.075C172.144 18.075 172.284 18.07 172.424 18.06C172.564 18.05 172.704 18.045 172.844 18.045V17.25C172.574 17.28 172.304 17.295 172.034 17.295C171.694 17.275 171.479 17.18 171.389 17.01C171.309 16.83 171.269 16.585 171.269 16.275V11.055H172.844V10.26H171.269ZM179.042 14.475H178.022C177.992 15.135 178.077 15.7 178.277 16.17C178.487 16.64 178.782 17.025 179.162 17.325C179.542 17.625 180.002 17.85 180.542 18C181.082 18.14 181.667 18.21 182.297 18.21C182.927 18.21 183.467 18.15 183.917 18.03C184.367 17.92 184.742 17.775 185.042 17.595C185.352 17.405 185.592 17.195 185.762 16.965C185.942 16.735 186.077 16.51 186.167 16.29C186.267 16.06 186.327 15.845 186.347 15.645C186.377 15.445 186.392 15.285 186.392 15.165C186.392 14.725 186.317 14.35 186.167 14.04C186.027 13.73 185.827 13.47 185.567 13.26C185.317 13.04 185.022 12.86 184.682 12.72C184.352 12.57 183.997 12.445 183.617 12.345L181.007 11.7C180.787 11.65 180.577 11.585 180.377 11.505C180.187 11.425 180.017 11.32 179.867 11.19C179.717 11.06 179.597 10.905 179.507 10.725C179.427 10.535 179.387 10.315 179.387 10.065C179.387 9.665 179.462 9.33 179.612 9.06C179.762 8.79 179.957 8.575 180.197 8.415C180.447 8.245 180.732 8.125 181.052 8.055C181.382 7.975 181.722 7.935 182.072 7.935C182.452 7.935 182.812 7.99 183.152 8.1C183.502 8.2 183.807 8.355 184.067 8.565C184.337 8.765 184.552 9.02 184.712 9.33C184.882 9.63 184.977 9.985 184.997 10.395H186.017C186.017 9.845 185.907 9.365 185.687 8.955C185.477 8.535 185.192 8.185 184.832 7.905C184.472 7.625 184.052 7.415 183.572 7.275C183.092 7.135 182.587 7.065 182.057 7.065C181.307 7.065 180.692 7.175 180.212 7.395C179.732 7.605 179.352 7.865 179.072 8.175C178.802 8.485 178.617 8.815 178.517 9.165C178.417 9.515 178.367 9.82 178.367 10.08C178.367 10.5 178.432 10.855 178.562 11.145C178.702 11.435 178.882 11.68 179.102 11.88C179.322 12.08 179.577 12.24 179.867 12.36C180.167 12.48 180.472 12.58 180.782 12.66L183.167 13.245C183.417 13.305 183.672 13.385 183.932 13.485C184.192 13.575 184.427 13.695 184.637 13.845C184.857 13.995 185.032 14.18 185.162 14.4C185.302 14.62 185.372 14.88 185.372 15.18C185.372 15.57 185.277 15.905 185.087 16.185C184.897 16.455 184.657 16.68 184.367 16.86C184.087 17.03 183.782 17.155 183.452 17.235C183.122 17.315 182.817 17.355 182.537 17.355C182.047 17.355 181.587 17.31 181.157 17.22C180.727 17.12 180.352 16.96 180.032 16.74C179.722 16.52 179.477 16.225 179.297 15.855C179.117 15.485 179.032 15.025 179.042 14.475ZM188.491 14.475H187.471C187.441 15.135 187.526 15.7 187.726 16.17C187.936 16.64 188.231 17.025 188.611 17.325C188.991 17.625 189.451 17.85 189.991 18C190.531 18.14 191.116 18.21 191.746 18.21C192.376 18.21 192.916 18.15 193.366 18.03C193.816 17.92 194.191 17.775 194.491 17.595C194.801 17.405 195.041 17.195 195.211 16.965C195.391 16.735 195.526 16.51 195.616 16.29C195.716 16.06 195.776 15.845 195.796 15.645C195.826 15.445 195.841 15.285 195.841 15.165C195.841 14.725 195.766 14.35 195.616 14.04C195.476 13.73 195.276 13.47 195.016 13.26C194.766 13.04 194.471 12.86 194.131 12.72C193.801 12.57 193.446 12.445 193.066 12.345L190.456 11.7C190.236 11.65 190.026 11.585 189.826 11.505C189.636 11.425 189.466 11.32 189.316 11.19C189.166 11.06 189.046 10.905 188.956 10.725C188.876 10.535 188.836 10.315 188.836 10.065C188.836 9.665 188.911 9.33 189.061 9.06C189.211 8.79 189.406 8.575 189.646 8.415C189.896 8.245 190.181 8.125 190.501 8.055C190.831 7.975 191.171 7.935 191.521 7.935C191.901 7.935 192.261 7.99 192.601 8.1C192.951 8.2 193.256 8.355 193.516 8.565C193.786 8.765 194.001 9.02 194.161 9.33C194.331 9.63 194.426 9.985 194.446 10.395H195.466C195.466 9.845 195.356 9.365 195.136 8.955C194.926 8.535 194.641 8.185 194.281 7.905C193.921 7.625 193.501 7.415 193.021 7.275C192.541 7.135 192.036 7.065 191.506 7.065C190.756 7.065 190.141 7.175 189.661 7.395C189.181 7.605 188.801 7.865 188.521 8.175C188.251 8.485 188.066 8.815 187.966 9.165C187.866 9.515 187.816 9.82 187.816 10.08C187.816 10.5 187.881 10.855 188.011 11.145C188.151 11.435 188.331 11.68 188.551 11.88C188.771 12.08 189.026 12.24 189.316 12.36C189.616 12.48 189.921 12.58 190.231 12.66L192.616 13.245C192.866 13.305 193.121 13.385 193.381 13.485C193.641 13.575 193.876 13.695 194.086 13.845C194.306 13.995 194.481 14.18 194.611 14.4C194.751 14.62 194.821 14.88 194.821 15.18C194.821 15.57 194.726 15.905 194.536 16.185C194.346 16.455 194.106 16.68 193.816 16.86C193.536 17.03 193.231 17.155 192.901 17.235C192.571 17.315 192.266 17.355 191.986 17.355C191.496 17.355 191.036 17.31 190.606 17.22C190.176 17.12 189.801 16.96 189.481 16.74C189.171 16.52 188.926 16.225 188.746 15.855C188.566 15.485 188.481 15.025 188.491 14.475ZM197.459 7.29V18H204.479V17.13H198.479V7.29H197.459ZM215.075 13.59H210.065C210.105 13.24 210.185 12.9 210.305 12.57C210.435 12.23 210.605 11.935 210.815 11.685C211.025 11.425 211.28 11.22 211.58 11.07C211.88 10.91 212.225 10.83 212.615 10.83C212.995 10.83 213.335 10.91 213.635 11.07C213.935 11.22 214.19 11.425 214.4 11.685C214.61 11.935 214.77 12.225 214.88 12.555C215 12.885 215.065 13.23 215.075 13.59ZM210.065 14.385H216.02C216.04 13.845 215.99 13.315 215.87 12.795C215.75 12.265 215.55 11.8 215.27 11.4C215 10.99 214.645 10.66 214.205 10.41C213.765 10.16 213.235 10.035 212.615 10.035C212.005 10.035 211.475 10.155 211.025 10.395C210.585 10.625 210.225 10.935 209.945 11.325C209.665 11.705 209.455 12.14 209.315 12.63C209.185 13.12 209.12 13.62 209.12 14.13C209.12 14.68 209.185 15.205 209.315 15.705C209.455 16.195 209.665 16.63 209.945 17.01C210.225 17.38 210.585 17.675 211.025 17.895C211.475 18.105 212.005 18.21 212.615 18.21C213.595 18.21 214.35 17.97 214.88 17.49C215.42 17.01 215.79 16.33 215.99 15.45H215.045C214.895 16.05 214.625 16.53 214.235 16.89C213.845 17.25 213.305 17.43 212.615 17.43C212.165 17.43 211.78 17.335 211.46 17.145C211.14 16.955 210.875 16.715 210.665 16.425C210.455 16.135 210.3 15.81 210.2 15.45C210.11 15.08 210.065 14.725 210.065 14.385ZM217.274 10.26V18H218.219V13.485C218.229 13.105 218.289 12.755 218.399 12.435C218.519 12.105 218.679 11.825 218.879 11.595C219.089 11.355 219.339 11.17 219.629 11.04C219.929 10.9 220.269 10.83 220.649 10.83C221.029 10.83 221.344 10.89 221.594 11.01C221.854 11.13 222.059 11.295 222.209 11.505C222.359 11.715 222.464 11.965 222.524 12.255C222.584 12.535 222.614 12.84 222.614 13.17V18H223.559V13.02C223.559 12.56 223.514 12.145 223.424 11.775C223.334 11.405 223.179 11.095 222.959 10.845C222.739 10.585 222.444 10.385 222.074 10.245C221.714 10.105 221.264 10.035 220.724 10.035C220.174 10.035 219.669 10.18 219.209 10.47C218.749 10.75 218.429 11.125 218.249 11.595H218.219V10.26H217.274ZM230.805 12.69H231.75C231.64 11.8 231.295 11.135 230.715 10.695C230.145 10.255 229.445 10.035 228.615 10.035C228.025 10.035 227.5 10.145 227.04 10.365C226.59 10.585 226.21 10.88 225.9 11.25C225.59 11.62 225.355 12.055 225.195 12.555C225.035 13.045 224.955 13.57 224.955 14.13C224.955 14.69 225.035 15.22 225.195 15.72C225.355 16.21 225.59 16.64 225.9 17.01C226.21 17.38 226.59 17.675 227.04 17.895C227.5 18.105 228.025 18.21 228.615 18.21C229.495 18.21 230.215 17.95 230.775 17.43C231.335 16.9 231.68 16.165 231.81 15.225H230.865C230.835 15.545 230.755 15.84 230.625 16.11C230.495 16.38 230.33 16.615 230.13 16.815C229.93 17.005 229.7 17.155 229.44 17.265C229.18 17.375 228.905 17.43 228.615 17.43C228.165 17.43 227.77 17.335 227.43 17.145C227.09 16.955 226.805 16.705 226.575 16.395C226.355 16.085 226.185 15.735 226.065 15.345C225.955 14.945 225.9 14.54 225.9 14.13C225.9 13.72 225.955 13.32 226.065 12.93C226.185 12.53 226.355 12.175 226.575 11.865C226.805 11.555 227.09 11.305 227.43 11.115C227.77 10.925 228.165 10.83 228.615 10.83C229.245 10.83 229.735 10.995 230.085 11.325C230.435 11.655 230.675 12.11 230.805 12.69ZM233.124 10.26V18H234.069V13.875C234.069 13.465 234.139 13.09 234.279 12.75C234.419 12.4 234.614 12.1 234.864 11.85C235.124 11.6 235.429 11.41 235.779 11.28C236.129 11.14 236.519 11.08 236.949 11.1V10.155C236.249 10.125 235.644 10.28 235.134 10.62C234.634 10.96 234.264 11.445 234.024 12.075H233.994V10.26H233.124ZM236.985 10.26L240.075 17.97L239.745 18.84C239.665 19.02 239.59 19.185 239.52 19.335C239.45 19.485 239.365 19.61 239.265 19.71C239.165 19.82 239.045 19.905 238.905 19.965C238.775 20.025 238.605 20.055 238.395 20.055C238.285 20.055 238.175 20.045 238.065 20.025C237.965 20.015 237.86 20 237.75 19.98V20.775C237.83 20.805 237.92 20.82 238.02 20.82C238.13 20.83 238.28 20.84 238.47 20.85C238.77 20.85 239.015 20.82 239.205 20.76C239.405 20.71 239.575 20.62 239.715 20.49C239.865 20.37 240 20.2 240.12 19.98C240.24 19.77 240.37 19.5 240.51 19.17L243.87 10.26H242.925L240.54 16.86L237.99 10.26H236.985ZM244.798 10.26V20.85H245.743V16.53H245.773C245.873 16.81 246.013 17.055 246.193 17.265C246.383 17.475 246.598 17.65 246.838 17.79C247.078 17.93 247.338 18.035 247.618 18.105C247.898 18.175 248.178 18.21 248.458 18.21C249.048 18.21 249.558 18.105 249.988 17.895C250.428 17.675 250.793 17.38 251.083 17.01C251.373 16.63 251.588 16.195 251.728 15.705C251.868 15.205 251.938 14.68 251.938 14.13C251.938 13.58 251.868 13.06 251.728 12.57C251.588 12.07 251.373 11.635 251.083 11.265C250.793 10.885 250.428 10.585 249.988 10.365C249.558 10.145 249.048 10.035 248.458 10.035C247.828 10.035 247.263 10.185 246.763 10.485C246.273 10.775 245.918 11.19 245.698 11.73H245.668V10.26H244.798ZM250.993 14.13C250.993 14.53 250.943 14.93 250.843 15.33C250.753 15.72 250.603 16.07 250.393 16.38C250.193 16.69 249.933 16.945 249.613 17.145C249.293 17.335 248.908 17.43 248.458 17.43C247.958 17.43 247.533 17.335 247.183 17.145C246.843 16.945 246.563 16.69 246.343 16.38C246.133 16.07 245.978 15.72 245.878 15.33C245.788 14.93 245.743 14.53 245.743 14.13C245.743 13.69 245.783 13.27 245.863 12.87C245.953 12.47 246.103 12.12 246.313 11.82C246.523 11.52 246.803 11.28 247.153 11.1C247.503 10.92 247.938 10.83 248.458 10.83C248.908 10.83 249.293 10.93 249.613 11.13C249.933 11.32 250.193 11.57 250.393 11.88C250.603 12.19 250.753 12.545 250.843 12.945C250.943 13.335 250.993 13.73 250.993 14.13ZM254.912 10.26V7.935H253.967V10.26H252.617V11.055H253.967V16.35C253.957 17.01 254.077 17.465 254.327 17.715C254.577 17.955 255.017 18.075 255.647 18.075C255.787 18.075 255.927 18.07 256.067 18.06C256.207 18.05 256.347 18.045 256.487 18.045V17.25C256.217 17.28 255.947 17.295 255.677 17.295C255.337 17.275 255.122 17.18 255.032 17.01C254.952 16.83 254.912 16.585 254.912 16.275V11.055H256.487V10.26H254.912ZM263.415 13.59H258.405C258.445 13.24 258.525 12.9 258.645 12.57C258.775 12.23 258.945 11.935 259.155 11.685C259.365 11.425 259.62 11.22 259.92 11.07C260.22 10.91 260.565 10.83 260.955 10.83C261.335 10.83 261.675 10.91 261.975 11.07C262.275 11.22 262.53 11.425 262.74 11.685C262.95 11.935 263.11 12.225 263.22 12.555C263.34 12.885 263.405 13.23 263.415 13.59ZM258.405 14.385H264.36C264.38 13.845 264.33 13.315 264.21 12.795C264.09 12.265 263.89 11.8 263.61 11.4C263.34 10.99 262.985 10.66 262.545 10.41C262.105 10.16 261.575 10.035 260.955 10.035C260.345 10.035 259.815 10.155 259.365 10.395C258.925 10.625 258.565 10.935 258.285 11.325C258.005 11.705 257.795 12.14 257.655 12.63C257.525 13.12 257.46 13.62 257.46 14.13C257.46 14.68 257.525 15.205 257.655 15.705C257.795 16.195 258.005 16.63 258.285 17.01C258.565 17.38 258.925 17.675 259.365 17.895C259.815 18.105 260.345 18.21 260.955 18.21C261.935 18.21 262.69 17.97 263.22 17.49C263.76 17.01 264.13 16.33 264.33 15.45H263.385C263.235 16.05 262.965 16.53 262.575 16.89C262.185 17.25 261.645 17.43 260.955 17.43C260.505 17.43 260.12 17.335 259.8 17.145C259.48 16.955 259.215 16.715 259.005 16.425C258.795 16.135 258.64 15.81 258.54 15.45C258.45 15.08 258.405 14.725 258.405 14.385ZM272.439 18V7.29H271.494V11.73H271.464C271.364 11.45 271.219 11.205 271.029 10.995C270.849 10.785 270.639 10.61 270.399 10.47C270.159 10.32 269.899 10.21 269.619 10.14C269.349 10.07 269.069 10.035 268.779 10.035C268.189 10.035 267.674 10.145 267.234 10.365C266.804 10.585 266.444 10.885 266.154 11.265C265.864 11.635 265.649 12.07 265.509 12.57C265.369 13.06 265.299 13.58 265.299 14.13C265.299 14.68 265.369 15.205 265.509 15.705C265.649 16.195 265.864 16.63 266.154 17.01C266.444 17.38 266.804 17.675 267.234 17.895C267.674 18.105 268.189 18.21 268.779 18.21C269.059 18.21 269.339 18.17 269.619 18.09C269.909 18.01 270.179 17.9 270.429 17.76C270.679 17.61 270.899 17.43 271.089 17.22C271.289 17.01 271.439 16.78 271.539 16.53H271.569V18H272.439ZM266.244 14.13C266.244 13.73 266.289 13.335 266.379 12.945C266.479 12.545 266.629 12.19 266.829 11.88C267.039 11.57 267.304 11.32 267.624 11.13C267.944 10.93 268.329 10.83 268.779 10.83C269.279 10.83 269.699 10.93 270.039 11.13C270.389 11.32 270.669 11.57 270.879 11.88C271.099 12.19 271.254 12.545 271.344 12.945C271.444 13.335 271.494 13.73 271.494 14.13C271.494 14.53 271.444 14.93 271.344 15.33C271.254 15.72 271.099 16.07 270.879 16.38C270.669 16.69 270.389 16.945 270.039 17.145C269.699 17.335 269.279 17.43 268.779 17.43C268.329 17.43 267.944 17.335 267.624 17.145C267.304 16.945 267.039 16.69 266.829 16.38C266.629 16.07 266.479 15.72 266.379 15.33C266.289 14.93 266.244 14.53 266.244 14.13ZM278.417 10.26V20.85H279.362V16.53H279.392C279.492 16.81 279.632 17.055 279.812 17.265C280.002 17.475 280.217 17.65 280.457 17.79C280.697 17.93 280.957 18.035 281.237 18.105C281.517 18.175 281.797 18.21 282.077 18.21C282.667 18.21 283.177 18.105 283.607 17.895C284.047 17.675 284.412 17.38 284.702 17.01C284.992 16.63 285.207 16.195 285.347 15.705C285.487 15.205 285.557 14.68 285.557 14.13C285.557 13.58 285.487 13.06 285.347 12.57C285.207 12.07 284.992 11.635 284.702 11.265C284.412 10.885 284.047 10.585 283.607 10.365C283.177 10.145 282.667 10.035 282.077 10.035C281.447 10.035 280.882 10.185 280.382 10.485C279.892 10.775 279.537 11.19 279.317 11.73H279.287V10.26H278.417ZM284.612 14.13C284.612 14.53 284.562 14.93 284.462 15.33C284.372 15.72 284.222 16.07 284.012 16.38C283.812 16.69 283.552 16.945 283.232 17.145C282.912 17.335 282.527 17.43 282.077 17.43C281.577 17.43 281.152 17.335 280.802 17.145C280.462 16.945 280.182 16.69 279.962 16.38C279.752 16.07 279.597 15.72 279.497 15.33C279.407 14.93 279.362 14.53 279.362 14.13C279.362 13.69 279.402 13.27 279.482 12.87C279.572 12.47 279.722 12.12 279.932 11.82C280.142 11.52 280.422 11.28 280.772 11.1C281.122 10.92 281.557 10.83 282.077 10.83C282.527 10.83 282.912 10.93 283.232 11.13C283.552 11.32 283.812 11.57 284.012 11.88C284.222 12.19 284.372 12.545 284.462 12.945C284.562 13.335 284.612 13.73 284.612 14.13ZM286.94 12.63H287.885C287.905 12 288.105 11.545 288.485 11.265C288.865 10.975 289.355 10.83 289.955 10.83C290.235 10.83 290.495 10.855 290.735 10.905C290.985 10.945 291.2 11.025 291.38 11.145C291.57 11.265 291.715 11.43 291.815 11.64C291.925 11.84 291.98 12.1 291.98 12.42C291.98 12.63 291.95 12.8 291.89 12.93C291.84 13.06 291.765 13.165 291.665 13.245C291.565 13.315 291.44 13.365 291.29 13.395C291.14 13.425 290.965 13.45 290.765 13.47C290.255 13.53 289.75 13.595 289.25 13.665C288.76 13.725 288.315 13.835 287.915 13.995C287.525 14.155 287.21 14.39 286.97 14.7C286.73 15 286.61 15.42 286.61 15.96C286.61 16.35 286.675 16.69 286.805 16.98C286.945 17.26 287.13 17.495 287.36 17.685C287.6 17.865 287.875 17.995 288.185 18.075C288.505 18.165 288.845 18.21 289.205 18.21C289.585 18.21 289.91 18.175 290.18 18.105C290.46 18.035 290.705 17.935 290.915 17.805C291.135 17.675 291.33 17.515 291.5 17.325C291.68 17.125 291.855 16.9 292.025 16.65H292.055C292.055 16.85 292.065 17.035 292.085 17.205C292.115 17.365 292.17 17.505 292.25 17.625C292.33 17.745 292.44 17.84 292.58 17.91C292.73 17.97 292.925 18 293.165 18C293.295 18 293.4 17.995 293.48 17.985C293.57 17.975 293.67 17.96 293.78 17.94V17.145C293.69 17.185 293.59 17.205 293.48 17.205C293.11 17.205 292.925 17.015 292.925 16.635V12.525C292.925 12.005 292.84 11.585 292.67 11.265C292.5 10.935 292.28 10.68 292.01 10.5C291.74 10.32 291.435 10.2 291.095 10.14C290.755 10.07 290.415 10.035 290.075 10.035C289.625 10.035 289.215 10.085 288.845 10.185C288.475 10.285 288.15 10.44 287.87 10.65C287.6 10.86 287.385 11.13 287.225 11.46C287.065 11.79 286.97 12.18 286.94 12.63ZM291.98 13.77V15C291.98 15.38 291.905 15.72 291.755 16.02C291.615 16.32 291.42 16.575 291.17 16.785C290.93 16.995 290.645 17.155 290.315 17.265C289.985 17.375 289.64 17.43 289.28 17.43C289.06 17.43 288.845 17.395 288.635 17.325C288.425 17.255 288.24 17.155 288.08 17.025C287.92 16.885 287.79 16.725 287.69 16.545C287.6 16.355 287.555 16.14 287.555 15.9C287.555 15.52 287.665 15.23 287.885 15.03C288.115 14.82 288.405 14.66 288.755 14.55C289.105 14.44 289.49 14.36 289.91 14.31C290.34 14.25 290.755 14.185 291.155 14.115C291.285 14.095 291.435 14.06 291.605 14.01C291.775 13.96 291.89 13.88 291.95 13.77H291.98ZM293.938 10.26L297.028 17.97L296.698 18.84C296.618 19.02 296.543 19.185 296.473 19.335C296.403 19.485 296.318 19.61 296.218 19.71C296.118 19.82 295.998 19.905 295.858 19.965C295.728 20.025 295.558 20.055 295.348 20.055C295.238 20.055 295.128 20.045 295.018 20.025C294.918 20.015 294.813 20 294.703 19.98V20.775C294.783 20.805 294.873 20.82 294.973 20.82C295.083 20.83 295.233 20.84 295.423 20.85C295.723 20.85 295.968 20.82 296.158 20.76C296.358 20.71 296.528 20.62 296.668 20.49C296.818 20.37 296.953 20.2 297.073 19.98C297.193 19.77 297.323 19.5 297.463 19.17L300.823 10.26H299.878L297.493 16.86L294.943 10.26H293.938ZM301.752 10.26V18H302.697V13.68C302.697 13.27 302.742 12.895 302.832 12.555C302.922 12.205 303.057 11.905 303.237 11.655C303.427 11.395 303.667 11.195 303.957 11.055C304.257 10.905 304.607 10.83 305.007 10.83C305.307 10.83 305.562 10.88 305.772 10.98C305.982 11.08 306.147 11.22 306.267 11.4C306.397 11.57 306.487 11.775 306.537 12.015C306.597 12.245 306.627 12.49 306.627 12.75V18H307.572V13.62C307.572 13.26 307.602 12.915 307.662 12.585C307.732 12.245 307.847 11.945 308.007 11.685C308.167 11.425 308.382 11.22 308.652 11.07C308.922 10.91 309.262 10.83 309.672 10.83C310.352 10.83 310.827 11 311.097 11.34C311.367 11.67 311.502 12.155 311.502 12.795V18H312.447V12.75C312.447 10.94 311.592 10.035 309.882 10.035C309.372 10.035 308.892 10.16 308.442 10.41C307.992 10.66 307.652 11.04 307.422 11.55C307.282 11.04 307.002 10.66 306.582 10.41C306.172 10.16 305.712 10.035 305.202 10.035C304.572 10.035 304.052 10.17 303.642 10.44C303.242 10.71 302.917 11.085 302.667 11.565H302.622V10.26H301.752ZM319.812 13.59H314.802C314.842 13.24 314.922 12.9 315.042 12.57C315.172 12.23 315.342 11.935 315.552 11.685C315.762 11.425 316.017 11.22 316.317 11.07C316.617 10.91 316.962 10.83 317.352 10.83C317.732 10.83 318.072 10.91 318.372 11.07C318.672 11.22 318.927 11.425 319.137 11.685C319.347 11.935 319.507 12.225 319.617 12.555C319.737 12.885 319.802 13.23 319.812 13.59ZM314.802 14.385H320.757C320.777 13.845 320.727 13.315 320.607 12.795C320.487 12.265 320.287 11.8 320.007 11.4C319.737 10.99 319.382 10.66 318.942 10.41C318.502 10.16 317.972 10.035 317.352 10.035C316.742 10.035 316.212 10.155 315.762 10.395C315.322 10.625 314.962 10.935 314.682 11.325C314.402 11.705 314.192 12.14 314.052 12.63C313.922 13.12 313.857 13.62 313.857 14.13C313.857 14.68 313.922 15.205 314.052 15.705C314.192 16.195 314.402 16.63 314.682 17.01C314.962 17.38 315.322 17.675 315.762 17.895C316.212 18.105 316.742 18.21 317.352 18.21C318.332 18.21 319.087 17.97 319.617 17.49C320.157 17.01 320.527 16.33 320.727 15.45H319.782C319.632 16.05 319.362 16.53 318.972 16.89C318.582 17.25 318.042 17.43 317.352 17.43C316.902 17.43 316.517 17.335 316.197 17.145C315.877 16.955 315.612 16.715 315.402 16.425C315.192 16.135 315.037 15.81 314.937 15.45C314.847 15.08 314.802 14.725 314.802 14.385ZM322.01 10.26V18H322.955V13.485C322.965 13.105 323.025 12.755 323.135 12.435C323.255 12.105 323.415 11.825 323.615 11.595C323.825 11.355 324.075 11.17 324.365 11.04C324.665 10.9 325.005 10.83 325.385 10.83C325.765 10.83 326.08 10.89 326.33 11.01C326.59 11.13 326.795 11.295 326.945 11.505C327.095 11.715 327.2 11.965 327.26 12.255C327.32 12.535 327.35 12.84 327.35 13.17V18H328.295V13.02C328.295 12.56 328.25 12.145 328.16 11.775C328.07 11.405 327.915 11.095 327.695 10.845C327.475 10.585 327.18 10.385 326.81 10.245C326.45 10.105 326 10.035 325.46 10.035C324.91 10.035 324.405 10.18 323.945 10.47C323.485 10.75 323.165 11.125 322.985 11.595H322.955V10.26H322.01ZM331.582 10.26V7.935H330.637V10.26H329.287V11.055H330.637V16.35C330.627 17.01 330.747 17.465 330.997 17.715C331.247 17.955 331.687 18.075 332.317 18.075C332.457 18.075 332.597 18.07 332.737 18.06C332.877 18.05 333.017 18.045 333.157 18.045V17.25C332.887 17.28 332.617 17.295 332.347 17.295C332.007 17.275 331.792 17.18 331.702 17.01C331.622 16.83 331.582 16.585 331.582 16.275V11.055H333.157V10.26H331.582Z" fill="#6B6B6B"/>
<rect x="8" y="14.35" width="11" height="11" rx="5.5" fill="#7ED321"/>
<path fill-rule="evenodd" clip-rule="evenodd" d="M16.2687 18.1138C16.469 18.3144 16.469 18.6396 16.2687 18.8402L12.9491 22.1645C12.8489 22.2648 12.7176 22.3151 12.5866 22.3151C12.4555 22.3151 12.3242 22.2648 12.224 22.1645L10.8182 20.7567C10.6179 20.5561 10.6179 20.2308 10.8182 20.0303C11.0185 19.8297 11.3433 19.8297 11.5436 20.0303L12.5866 21.0747L15.5436 18.1135C15.7439 17.9132 16.0684 17.9132 16.2687 18.1138Z" fill="white"/>
</svg>
